#!OML:ASF E:\Mandelcareful walks\Project 1\Capture day 1\Session 1\Subject1.ASF
:FULLY-SPECIFIED
:DEGREES
513
root 19.5828 16.7925 -0.188486 373.172 84.9369 368.405
lowerback 12.4225 1.88285 -7.46934
upperback 7.8676 2.14477 -1.09028
thorax 1.1407 1.00613 2.81412
lowerneck -18.3856 -4.56813 -8.06327
upperneck 32.7376 -3.47513 1.23106
head 14.5889 -2.07225 1.34256
rclavicle -1.94809e-014 -6.36111e-015
rhumerus -29.7722 -2.17342 -82.0239
rradius 31.6782
rwrist -16.1003
rhand -9.8382 -28.8316
rfingers 7.12502
rthumb 16.1394 -58.1796
lclavicle -1.94809e-014 -6.36111e-015
lhumerus -26.0948 2.43275 85.8062
lradius 26.7284
lwrist 12.9577
lhand -23.3962 -12.9982
lfingers 7.12502
lthumb 3.06051 16.9595
rfemur -8.69819 -11.1653 8.64795
rtibia 57.1814
rfoot -0.982948 -7.83962
rtoes 5.61133
lfemur -20.9638 6.28333 -21.6058
ltibia 35.2328
lfoot -17.2665 8.07478
ltoes 7.81796
514
root 19.7558 16.7989 -0.230433 374.265 85.2233 369.613
lowerback 12.6406 1.77405 -7.59056
upperback 7.88831 1.97596 -1.06095
thorax 1.06121 0.921561 2.92717
lowerneck -18.5759 -4.73962 -8.20797
upperneck 32.8446 -3.74058 1.44766
head 14.7059 -2.17551 1.40511
rclavicle 9.93923e-015 1.35174e-014
rhumerus -29.6456 -1.96989 -82.2554
rradius 31.9645
rwrist -16.4552
rhand -9.71269 -28.7094
rfingers 7.12502
rthumb 16.2603 -58.0476
lclavicle 9.93923e-015 1.35174e-014
lhumerus -26.009 2.30567 85.5941
lradius 27.141
lwrist 12.9614
lhand -23.5276 -12.5852
lfingers 7.12502
lthumb 2.93355 17.3744
rfemur -10.7496 -11.9245 8.79471
rtibia 58.9627
rfoot -2.24761 -7.37969
rtoes 4.40429
lfemur -19.9847 5.84036 -21.8306
ltibia 34.8135
lfoot -17.6882 8.26808
ltoes 9.09445
515
root 19.9266 16.8015 -0.266486 377.6 85.5039 373.047
lowerback 12.8083 1.67234 -7.86523
upperback 7.88635 1.80289 -1.06091
thorax 0.985763 0.830484 3.09765
lowerneck -18.5975 -4.8377 -8.27123
upperneck 32.8288 -3.92162 1.59898
head 14.72 -2.24053 1.4442
rclavicle -9.54166e-015 -5.56597e-015
rhumerus -29.683 -1.81811 -82.4695
rradius 32.3912
rwrist -16.6625
rhand -9.52089 -28.8179
rfingers 7.12502
rthumb 16.445 -58.1408
lclavicle -9.54166e-015 -5.56597e-015
lhumerus -25.9006 2.03472 85.409
lradius 27.4943
lwrist 12.9753
lhand -23.6595 -12.4757
lfingers 7.12502
lthumb 2.80618 17.4856
rfemur -12.8115 -12.6367 8.88083
rtibia 60.1843
rfoot -3.34717 -6.93068
rtoes 4.90218
lfemur -19.0293 5.38715 -22.2008
ltibia 34.4661
lfoot -18.1126 8.33939
ltoes 10.5722
516
root 20.0935 16.8028 -0.297916 381.85 85.7034 377.29
lowerback 12.8466 1.60138 -8.17285
upperback 7.83496 1.67073 -1.06634
thorax 0.923716 0.757631 3.27867
lowerneck -18.2735 -4.76917 -8.14388
upperneck 32.5356 -3.89121 1.5536
head 14.5053 -2.21771 1.41246
rclavicle -1.17283e-014 -9.14409e-015
rhumerus -29.8413 -1.6907 -82.6269
rradius 32.9228
rwrist -16.8786
rhand -9.1621 -28.553
rfingers 7.12502
rthumb 16.7904 -57.8471
lclavicle -1.17283e-014 -9.14409e-015
lhumerus -25.779 1.67977 85.2796
lradius 27.8062
lwrist 13.049
lhand -23.7972 -12.0515
lfingers 7.12502
lthumb 2.67325 17.9114
rfemur -15.0114 -13.2626 9.03918
rtibia 60.8795
rfoot -4.58011 -6.66054
rtoes 5.65948
lfemur -18.2247 5.03449 -22.6132
ltibia 34.1677
lfoot -18.5132 8.35167
ltoes 11.1551
517
root 20.2598 16.8006 -0.32721 384.024 85.7924 379.418
lowerback 12.8856 1.55363 -8.36974
upperback 7.76625 1.57596 -1.02685
thorax 0.838717 0.706315 3.44032
lowerneck -18.25 -4.56484 -7.89042
upperneck 32.421 -3.6687 1.49389
head 14.423 -2.09955 1.38501
rclavicle -1.19271e-014 -2.78299e-014
rhumerus -29.8995 -1.5585 -82.7622
rradius 33.255
rwrist -17.1253
rhand -9.04669 -28.0407
rfingers 7.12502
rthumb 16.9015 -57.3252
lclavicle -1.19271e-014 -2.78299e-014
lhumerus -25.7479 1.42246 85.2038
lradius 28.2706
lwrist 13.2287
lhand -23.9947 -11.6791
lfingers 7.12502
lthumb 2.48249 18.2862
rfemur -17.2236 -13.7304 9.4288
rtibia 61.0215
rfoot -6.01316 -6.6515
rtoes 4.61093
lfemur -17.4547 4.81299 -22.8751
ltibia 33.8904
lfoot -18.9691 8.38227
ltoes 11.5597
